<svg xmlns="http://www.w3.org/2000/svg" width="72" height="34" viewBox="0 0 72 34">
  <metadata><?xpacket begin="﻿" id="W5M0MpCehiHzreSzNTczkc9d"?>
<x:xmpmeta xmlns:x="adobe:ns:meta/" x:xmptk="Adobe XMP Core 5.6-c138 79.159824, 2016/09/14-01:09:01        ">
   <rdf:RDF xmlns:rdf="http://www.w3.org/1999/02/22-rdf-syntax-ns#">
      <rdf:Description rdf:about=""/>
   </rdf:RDF>
</x:xmpmeta>
                                                                                                    
                                                                                                    
                                                                                                    
                                                                                                    
                                                                                                    
                                                                                                    
                                                                                                    
                                                                                                    
                                                                                                    
                                                                                                    
                                                                                                    
                                                                                                    
                                                                                                    
                                                                                                    
                                                                                                    
                                                                                                    
                                                                                                    
                                                                                                    
                                                                                                    
                                                                                                    
                           
<?xpacket end="w"?></metadata>
<defs>
    <style>
      .cls-1 {
        fill: #d83a3a;
        fill-rule: evenodd;
      }
    </style>
  </defs>
  <path id="Forma_1" data-name="Forma 1" class="cls-1" d="M1165.7,813.036a37.564,37.564,0,0,0-4.88-1.031c-1.15,1.7-6.01,2.923-8.81,2.923h-0.02c-2.8,0-7.66-1.219-8.81-2.923a37.04,37.04,0,0,0-4.87,1.031,17.271,17.271,0,0,1,11.03,16.214,17.556,17.556,0,0,1-2.14,8.427h9.6a17.553,17.553,0,0,1-2.14-8.427A17.265,17.265,0,0,1,1165.7,813.036Zm-34.06.736a16.12,16.12,0,1,0,15.63,16.113A15.9,15.9,0,0,0,1131.64,813.772Zm0,26.29a10.182,10.182,0,1,1,9.87-10.177A10.042,10.042,0,0,1,1131.64,840.062Zm-6.38-15.308a7.645,7.645,0,0,0,.25,9.432,9.2,9.2,0,0,1,1.44-8.089,8.615,8.615,0,0,1,7.23-3.487A7.11,7.11,0,0,0,1125.26,824.754Zm47.1-10.982A16.12,16.12,0,1,0,1188,829.885,15.894,15.894,0,0,0,1172.36,813.772Zm0,26.29a10.181,10.181,0,1,1,9.88-10.177A10.04,10.04,0,0,1,1172.36,840.062Zm-2.54-17.452a8.615,8.615,0,0,1,7.23,3.487,9.2,9.2,0,0,1,1.44,8.089,7.645,7.645,0,0,0,.25-9.432A7.11,7.11,0,0,0,1169.82,822.61Z" transform="translate(-1116 -812)"/>
</svg>
