<svg xmlns="http://www.w3.org/2000/svg" width="65" height="50" viewBox="0 0 65 50">
  <metadata><?xpacket begin="﻿" id="W5M0MpCehiHzreSzNTczkc9d"?>
<x:xmpmeta xmlns:x="adobe:ns:meta/" x:xmptk="Adobe XMP Core 5.6-c138 79.159824, 2016/09/14-01:09:01        ">
   <rdf:RDF xmlns:rdf="http://www.w3.org/1999/02/22-rdf-syntax-ns#">
      <rdf:Description rdf:about=""/>
   </rdf:RDF>
</x:xmpmeta>
                                                                                                    
                                                                                                    
                                                                                                    
                                                                                                    
                                                                                                    
                                                                                                    
                                                                                                    
                                                                                                    
                                                                                                    
                                                                                                    
                                                                                                    
                                                                                                    
                                                                                                    
                                                                                                    
                                                                                                    
                                                                                                    
                                                                                                    
                                                                                                    
                                                                                                    
                                                                                                    
                           
<?xpacket end="w"?></metadata>
<defs>
    <style>
      .cls-1 {
        fill: #d83a3a;
        fill-rule: evenodd;
      }
    </style>
  </defs>
  <path id="Forma_1" data-name="Forma 1" class="cls-1" d="M860.5,822.75a9.382,9.382,0,1,0,9.75,9.375A9.568,9.568,0,0,0,860.5,822.75Zm26-9.375h-7.8a2.888,2.888,0,0,1-2.567-1.779l-2.016-5.818A2.89,2.89,0,0,0,871.55,804h-22.1a2.889,2.889,0,0,0-2.567,1.778l-2.016,5.819a2.891,2.891,0,0,1-2.567,1.778h-7.8a6.4,6.4,0,0,0-6.5,6.25V847.75a6.4,6.4,0,0,0,6.5,6.25h52a6.4,6.4,0,0,0,6.5-6.25V819.625A6.4,6.4,0,0,0,886.5,813.375Zm-26,34.375c-8.975,0-16.25-7-16.25-15.625S851.525,816.5,860.5,816.5s16.25,7,16.25,15.625S869.473,847.75,860.5,847.75ZM884.225,824a2.189,2.189,0,1,1,2.275-2.188A2.233,2.233,0,0,1,884.225,824Z" transform="translate(-828 -804)"/>
</svg>
