<svg xmlns="http://www.w3.org/2000/svg" width="55.969" height="58" viewBox="0 0 55.969 58">
  <metadata><?xpacket begin="﻿" id="W5M0MpCehiHzreSzNTczkc9d"?>
<x:xmpmeta xmlns:x="adobe:ns:meta/" x:xmptk="Adobe XMP Core 5.6-c138 79.159824, 2016/09/14-01:09:01        ">
   <rdf:RDF xmlns:rdf="http://www.w3.org/1999/02/22-rdf-syntax-ns#">
      <rdf:Description rdf:about=""/>
   </rdf:RDF>
</x:xmpmeta>
                                                                                                    
                                                                                                    
                                                                                                    
                                                                                                    
                                                                                                    
                                                                                                    
                                                                                                    
                                                                                                    
                                                                                                    
                                                                                                    
                                                                                                    
                                                                                                    
                                                                                                    
                                                                                                    
                                                                                                    
                                                                                                    
                                                                                                    
                                                                                                    
                                                                                                    
                                                                                                    
                           
<?xpacket end="w"?></metadata>
<defs>
    <style>
      .cls-1 {
        fill: #d83a3a;
        fill-rule: evenodd;
      }
    </style>
  </defs>
  <path id="Forma_1" data-name="Forma 1" class="cls-1" d="M294.143,826.343c-1.9-1.794-4.533-2.23-6.855-2.609-0.365-.062-0.725-0.122-1.079-0.185-0.261-.069-0.6-0.143-0.934-0.223-3.094-.71-5.281-1.4-5.288-3.91a14.1,14.1,0,0,1,1.124-4.8,15.164,15.164,0,0,0,1.246-6.01c-0.211-3.983-1.919-7.449-4.579-9.276A6.266,6.266,0,0,0,274,798a4.028,4.028,0,0,0-4.047,2.911,9.493,9.493,0,0,0-.276,3.742c0.014,0.315.038,0.64,0.047,0.977a11.257,11.257,0,0,1-.663,4.608,25.451,25.451,0,0,1-4.595,7.261l-0.885,1.1a35.137,35.137,0,0,1-3.974,4.428,5.565,5.565,0,0,1-2.458.969c-0.277.019-17.13,0.183-17.13,0.183v24.492s13.218-.017,13.961-0.061c0.652-.037,1.28-0.074,1.856-0.074H256.1c0.545,0.114,1.095.172,1.669,0.235,0.509,0.053,1.037.11,1.591,0.214a4.622,4.622,0,0,1,1.888,1.3,10.393,10.393,0,0,0,1.063.907c0.357,0.247.7,0.5,1.056,0.75a19.788,19.788,0,0,0,3.468,2.146,18.646,18.646,0,0,0,4.969,1.1c0.815,0.106,1.622.2,2.395,0.357l1.382,0.156a36.692,36.692,0,0,0,4.028.3,12.719,12.719,0,0,0,2.472-.219,5.656,5.656,0,0,0,4.384-5.366,6.716,6.716,0,0,0,3.348-3.1,5.845,5.845,0,0,0,.669-3.884,7.082,7.082,0,0,0,3.2-7.5,5.449,5.449,0,0,0,2.2-3.66A6.857,6.857,0,0,0,294.143,826.343Zm-1.746,4.905a1.955,1.955,0,0,1-1.6,1.894,1.769,1.769,0,0,0-1.244,1.043,2.314,2.314,0,0,0,.246,2.03,2.9,2.9,0,0,1,.237,2.42,3.424,3.424,0,0,1-2.345,2.228,1.725,1.725,0,0,0-1.067,2.715,2.758,2.758,0,0,1-.2,2.5A1.823,1.823,0,0,1,285,847.219a0.949,0.949,0,0,1-.222-0.027l-0.082-.016h-0.084a2.307,2.307,0,0,0-1.885.909,1.424,1.424,0,0,0-.1,1.383,2.342,2.342,0,0,1-.089,1.966,1.409,1.409,0,0,1-1.089.661,9.966,9.966,0,0,1-2.592.231c-2.513-.224-5.18-0.464-7.757-0.923l-1.228-.274c-0.639-.141-1.269-0.278-1.829-0.418a20.236,20.236,0,0,1-2.95-1.966c-0.331-.246-0.654-0.491-0.973-0.717-0.233-.183-0.486-0.42-0.742-0.658a5.886,5.886,0,0,0-2.308-1.546,4.586,4.586,0,0,0-2.524-.526c-2.4-.219-3.535-1.078-4.119-3.158a24.016,24.016,0,0,1-.563-6.563l0.008-.463c0.018-1.954.049-4.4,1.062-6.174,0.5-.847,1.509-1.027,2.673-1.246a8.67,8.67,0,0,0,4.06-1.682,0.87,0.87,0,0,0,.47-0.414,6.439,6.439,0,0,0,1.235-1.233,59.221,59.221,0,0,0,5.037-6.141c0.322-.472.644-0.925,0.961-1.374A20.39,20.39,0,0,0,272.987,810a18.818,18.818,0,0,0,.312-5.613l-0.015-.3c-0.079-1.213-.1-2.518.6-2.614a1,1,0,0,1,.161-0.014c1.122,0,2.538,1.4,3.38,2.695a10.062,10.062,0,0,1,1.288,4.93,16.037,16.037,0,0,1-1.145,4.779,15.031,15.031,0,0,0-1.2,6.071,7.464,7.464,0,0,0,5.885,6.336c0.961,0.246,1.981.412,2.966,0.57a16.274,16.274,0,0,1,5.284,1.46A3.019,3.019,0,0,1,292.4,831.248Z" transform="translate(-240 -798)"/>
</svg>
