<svg xmlns="http://www.w3.org/2000/svg" width="75" height="28" viewBox="0 0 75 28">
  <metadata><?xpacket begin="﻿" id="W5M0MpCehiHzreSzNTczkc9d"?>
<x:xmpmeta xmlns:x="adobe:ns:meta/" x:xmptk="Adobe XMP Core 5.6-c138 79.159824, 2016/09/14-01:09:01        ">
   <rdf:RDF xmlns:rdf="http://www.w3.org/1999/02/22-rdf-syntax-ns#">
      <rdf:Description rdf:about=""/>
   </rdf:RDF>
</x:xmpmeta>
                                                                                                    
                                                                                                    
                                                                                                    
                                                                                                    
                                                                                                    
                                                                                                    
                                                                                                    
                                                                                                    
                                                                                                    
                                                                                                    
                                                                                                    
                                                                                                    
                                                                                                    
                                                                                                    
                                                                                                    
                                                                                                    
                                                                                                    
                                                                                                    
                                                                                                    
                                                                                                    
                           
<?xpacket end="w"?></metadata>
<defs>
    <style>
      .cls-1 {
        fill: #d83a3a;
        fill-rule: evenodd;
      }
    </style>
  </defs>
  <path id="Forma_1" data-name="Forma 1" class="cls-1" d="M593.251,826.31h-1.4c-0.022-.1-0.043-0.2-0.068-0.287-1.52-5.052-6.083-7.331-10.017-8-1.679-.539-5.235-0.716-9.911-0.744v-0.278H541.468v0.277c-4.83.024-8.518,0.193-10.24,0.745-3.929.668-8.494,2.945-10.012,8-0.025.083-.047,0.19-0.069,0.289h-1.4a0.75,0.75,0,0,0-.75.755v1.323a0.75,0.75,0,0,0,.75.756h1.182c0.052,3.313.917,8.146,3.475,11.627,3.035,2.783,6.148,4.233,9.93,4.233,6.442,0,12.967-3.984,15.141-7.548a41.41,41.41,0,0,0,3.666-6.824l0.081-.25a15.873,15.873,0,0,0,.64-1.713,10.978,10.978,0,0,0,.143-2.546h4.986a11.037,11.037,0,0,0,.143,2.546,16.508,16.508,0,0,0,.639,1.713l0.083,0.25a41.053,41.053,0,0,0,3.662,6.824c2.178,3.564,8.7,7.546,15.144,7.548,3.783,0,6.895-1.45,9.931-4.233,2.558-3.481,3.419-8.312,3.47-11.627h1.187a0.752,0.752,0,0,0,.75-0.756v-1.323A0.751,0.751,0,0,0,593.251,826.31Zm-33.913-2.928h-5.68a7.061,7.061,0,0,0-.661-1.949l-2.927-2.189c-0.132-.052-1.063-0.73-1.85-1.247h16.555c-0.784.52-1.715,1.2-1.85,1.247L560,821.433A6.959,6.959,0,0,0,559.338,823.382Z" transform="translate(-519 -817)"/>
</svg>
