<svg xmlns="http://www.w3.org/2000/svg" width="19" height="19" viewBox="0 0 19 19">
  <metadata><?xpacket begin="﻿" id="W5M0MpCehiHzreSzNTczkc9d"?>
<x:xmpmeta xmlns:x="adobe:ns:meta/" x:xmptk="Adobe XMP Core 5.6-c138 79.159824, 2016/09/14-01:09:01        ">
   <rdf:RDF xmlns:rdf="http://www.w3.org/1999/02/22-rdf-syntax-ns#">
      <rdf:Description rdf:about=""/>
   </rdf:RDF>
</x:xmpmeta>
                                                                                                    
                                                                                                    
                                                                                                    
                                                                                                    
                                                                                                    
                                                                                                    
                                                                                                    
                                                                                                    
                                                                                                    
                                                                                                    
                                                                                                    
                                                                                                    
                                                                                                    
                                                                                                    
                                                                                                    
                                                                                                    
                                                                                                    
                                                                                                    
                                                                                                    
                                                                                                    
                           
<?xpacket end="w"?></metadata>
<defs>
    <style>
      .cls-1 {
        fill: #dcdcdc;
        fill-rule: evenodd;
      }
    </style>
  </defs>
  <path id="Forma_1" data-name="Forma 1" class="cls-1" d="M1043.99,3018a0.913,0.913,0,0,1-.28.8l-2.68,2.66a1.425,1.425,0,0,1-.47.34,2.091,2.091,0,0,1-.57.18,0.682,0.682,0,0,0-.12.01,2.012,2.012,0,0,1-.26.01,8.742,8.742,0,0,1-1.24-.13,9.524,9.524,0,0,1-2.09-.64,18.544,18.544,0,0,1-2.81-1.54,21.77,21.77,0,0,1-3.34-2.82,22.133,22.133,0,0,1-2.33-2.66,19.287,19.287,0,0,1-1.49-2.34,11.4,11.4,0,0,1-.84-1.96,10.246,10.246,0,0,1-.39-1.51,5.844,5.844,0,0,1-.08-0.99c0.02-.24.02-0.38,0.02-0.41a2.331,2.331,0,0,1,.18-0.57,1.56,1.56,0,0,1,.35-0.47l2.67-2.68a0.874,0.874,0,0,1,.64-0.28,0.775,0.775,0,0,1,.47.15,1.5,1.5,0,0,1,.34.37l2.15,4.09a0.941,0.941,0,0,1,.1.7,1.277,1.277,0,0,1-.34.65l-0.99.98a0.5,0.5,0,0,0-.07.13,0.613,0.613,0,0,0-.03.16,3.8,3.8,0,0,0,.37.96,9.181,9.181,0,0,0,.74,1.18,13.177,13.177,0,0,0,1.43,1.6,12.644,12.644,0,0,0,1.61,1.44,9.734,9.734,0,0,0,1.17.75,3.055,3.055,0,0,0,.73.29l0.25,0.06a0.451,0.451,0,0,0,.13-0.03,0.489,0.489,0,0,0,.13-0.08l1.15-1.16a1.2,1.2,0,0,1,.84-0.32,1.094,1.094,0,0,1,.55.12h0.02l3.88,2.29A1.02,1.02,0,0,1,1043.99,3018Z" transform="translate(-1025 -3003)"/>
</svg>
