<svg xmlns="http://www.w3.org/2000/svg" width="23" height="17" viewBox="0 0 23 17">
  <metadata><?xpacket begin="﻿" id="W5M0MpCehiHzreSzNTczkc9d"?>
<x:xmpmeta xmlns:x="adobe:ns:meta/" x:xmptk="Adobe XMP Core 5.6-c138 79.159824, 2016/09/14-01:09:01        ">
   <rdf:RDF xmlns:rdf="http://www.w3.org/1999/02/22-rdf-syntax-ns#">
      <rdf:Description rdf:about=""/>
   </rdf:RDF>
</x:xmpmeta>
                                                                                                    
                                                                                                    
                                                                                                    
                                                                                                    
                                                                                                    
                                                                                                    
                                                                                                    
                                                                                                    
                                                                                                    
                                                                                                    
                                                                                                    
                                                                                                    
                                                                                                    
                                                                                                    
                                                                                                    
                                                                                                    
                                                                                                    
                                                                                                    
                                                                                                    
                                                                                                    
                           
<?xpacket end="w"?></metadata>
<defs>
    <style>
      .cls-1 {
        fill: #337ba0;
        fill-rule: evenodd;
      }
    </style>
  </defs>
  <path id="Forma_1" data-name="Forma 1" class="cls-1" d="M1041,5760.17a2.771,2.771,0,0,1-.37,1.36l-7.26-8.01,7.18-6.19a2.783,2.783,0,0,1,.45,1.5v11.34Zm-11.5-5.19,10-8.62a2.913,2.913,0,0,0-1.37-.36h-17.26a2.842,2.842,0,0,0-1.36.36Zm2.79-.53-2.32,2a0.7,0.7,0,0,1-.94,0l-2.32-2-7.35,8.11a2.808,2.808,0,0,0,1.51.44h17.26a2.808,2.808,0,0,0,1.51-.44Zm-13.84-7.12a2.783,2.783,0,0,0-.45,1.5v11.34a2.771,2.771,0,0,0,.37,1.36l7.26-8.01Z" transform="translate(-1018 -5746)"/>
</svg>
