<svg xmlns="http://www.w3.org/2000/svg" width="27.18" height="27.18" viewBox="0 0 27.18 27.18">
  <metadata><?xpacket begin="﻿" id="W5M0MpCehiHzreSzNTczkc9d"?>
<x:xmpmeta xmlns:x="adobe:ns:meta/" x:xmptk="Adobe XMP Core 5.6-c138 79.159824, 2016/09/14-01:09:01        ">
   <rdf:RDF xmlns:rdf="http://www.w3.org/1999/02/22-rdf-syntax-ns#">
      <rdf:Description rdf:about=""/>
   </rdf:RDF>
</x:xmpmeta>
                                                                                                    
                                                                                                    
                                                                                                    
                                                                                                    
                                                                                                    
                                                                                                    
                                                                                                    
                                                                                                    
                                                                                                    
                                                                                                    
                                                                                                    
                                                                                                    
                                                                                                    
                                                                                                    
                                                                                                    
                                                                                                    
                                                                                                    
                                                                                                    
                                                                                                    
                                                                                                    
                           
<?xpacket end="w"?></metadata>
<defs>
    <style>
      .cls-1 {
        fill: #a2a2a2;
        fill-rule: evenodd;
      }
    </style>
  </defs>
  <path id="Forma_1" data-name="Forma 1" class="cls-1" d="M1532.62,5964.11l1.52-1.52v5.66a1.36,1.36,0,0,0,2.72,0v-5.66l1.52,1.52a1.358,1.358,0,1,0,1.92-1.92l-3.84-3.84h0a1.354,1.354,0,0,0-.96-0.39,1.29,1.29,0,0,0-.96.39l-3.84,3.84A1.358,1.358,0,1,0,1532.62,5964.11Zm-3.9,11.14a13.568,13.568,0,1,0-4.97-18.54A13.55,13.55,0,0,0,1528.72,5975.25Zm-2.62-17.18a10.856,10.856,0,1,1,3.97,14.83A10.857,10.857,0,0,1,1526.1,5958.07Z" transform="translate(-1521.91 -5949.91)"/>
</svg>
