<svg xmlns="http://www.w3.org/2000/svg" width="70.85" height="70.85" viewBox="0 0 70.85 70.85">
  <metadata><?xpacket begin="﻿" id="W5M0MpCehiHzreSzNTczkc9d"?>
<x:xmpmeta xmlns:x="adobe:ns:meta/" x:xmptk="Adobe XMP Core 5.6-c138 79.159824, 2016/09/14-01:09:01        ">
   <rdf:RDF xmlns:rdf="http://www.w3.org/1999/02/22-rdf-syntax-ns#">
      <rdf:Description rdf:about=""/>
   </rdf:RDF>
</x:xmpmeta>
                                                                                                    
                                                                                                    
                                                                                                    
                                                                                                    
                                                                                                    
                                                                                                    
                                                                                                    
                                                                                                    
                                                                                                    
                                                                                                    
                                                                                                    
                                                                                                    
                                                                                                    
                                                                                                    
                                                                                                    
                                                                                                    
                                                                                                    
                                                                                                    
                                                                                                    
                                                                                                    
                           
<?xpacket end="w"?></metadata>
<defs>
    <style>
      .cls-1 {
        fill: #fff;
        fill-rule: evenodd;
      }
    </style>
  </defs>
  <path id="Forma_1" data-name="Forma 1" class="cls-1" d="M1275.29,4713.42a1.924,1.924,0,0,0-3.22-.89l-8.57,8.53a4.865,4.865,0,0,1-6.88,0l-3.93-3.91a4.853,4.853,0,0,1,0-6.87l8.46-8.43a1.91,1.91,0,0,0-.92-3.21,20.534,20.534,0,0,0-6.3-.47c-9.38.75-18.01,9.51-18.59,18.87a20.155,20.155,0,0,0,1.9,9.88l-29.94,25.64a6.38,6.38,0,0,0-.39,9.32l5.07,5.15a6.429,6.429,0,0,0,9.43-.3l25.93-29.94a20.344,20.344,0,0,0,9.56,1.73c9.45-.59,18.25-9.26,18.94-18.67A20.427,20.427,0,0,0,1275.29,4713.42Z" transform="translate(-1205.06 -4698.09)"/>
</svg>
