<svg xmlns="http://www.w3.org/2000/svg" width="104" height="39" viewBox="0 0 104 39">
  <defs>
    <style>
      .cls-1 {
        fill: #fff;
        fill-rule: evenodd;
      }
    </style>
  </defs>
  <path id="Forma_1" data-name="Forma 1" class="cls-1" d="M411.96,4728.96h-1.945c-0.03-.14-0.06-0.29-0.094-0.4-2.107-7.04-8.435-10.21-13.889-11.14-2.329-.75-7.259-0.99-13.742-1.03V4716H340.16v0.39c-6.7.03-11.811,0.27-14.2,1.03-5.448.93-11.778,4.1-13.883,11.14-0.034.12-.065,0.26-0.1,0.4H310.04a1.043,1.043,0,0,0-1.04,1.05v1.85a1.041,1.041,0,0,0,1.04,1.05h1.639c0.072,4.61,1.271,11.35,4.817,16.19,4.208,3.88,8.525,5.9,13.77,5.9,8.932,0,17.978-5.55,20.994-10.51,2.049-3.37,4.227-6.96,5.082-9.51l0.112-.35a22.066,22.066,0,0,0,.889-2.38,15.433,15.433,0,0,0,.2-3.55h6.913a15.489,15.489,0,0,0,.2,3.55,22.863,22.863,0,0,0,.886,2.38l0.115,0.35c0.85,2.55,3.03,6.14,5.077,9.51,3.02,4.96,12.062,10.51,21,10.51,5.245,0,9.56-2.02,13.77-5.9,3.546-4.84,4.741-11.57,4.812-16.19h1.646a1.046,1.046,0,0,0,1.04-1.05v-1.85A1.041,1.041,0,0,0,411.96,4728.96Zm-47.022-4.08h-7.876a9.833,9.833,0,0,0-.917-2.71l-4.058-3.05c-0.182-.07-1.474-1.02-2.566-1.74h22.956c-1.087.72-2.379,1.67-2.566,1.74l-4.055,3.05A9.7,9.7,0,0,0,364.938,4724.88Z" transform="translate(-309 -4716)"/>
</svg>
